<?xml version="1.0" standalone="no"?>
 <!DOCTYPE svg PUBLIC "-//W3C//DTD SVG 1.1//EN" 
 "http://www.w3.org/Graphics/SVG/1.1/DTD/svg11.dtd"> 
<svg xmlns="http://www.w3.org/2000/svg" version="1.1" 
    width="5.88772cm" height="8.85698cm" viewBox="0 0 23180 34870 ">
<title>SVG Picture created as JDY-08.svg date 2017/05/22 22:39:51 </title>
  <desc>Picture generated by Eeschema-SVG </desc>
<g style="fill:#000000; fill-opacity:1;stroke:#000000; stroke-opacity:1;
stroke-linecap:round; stroke-linejoin:round; "
 transform="translate(0 0) scale(1 1)">
</g>
<g style="fill:#000000; fill-opacity:0.0; 
stroke:#000000; stroke-width:-10; stroke-opacity:1; 
stroke-linecap:round; stroke-linejoin:round;">
</g>
<g style="fill:#000000; fill-opacity:0.0; 
stroke:#000000; stroke-width:60; stroke-opacity:1; 
stroke-linecap:round; stroke-linejoin:round;">
<rect x="4090" y="2930" width="15000" height="29000" rx="0" />
<polyline fill="none;"
points="4090,28430
9590,28430
" /> 
<polyline fill="none;"
points="4090,15430
9590,15430
" /> 
<polyline fill="none;"
points="4090,11430
9590,11430
" /> 
<polyline fill="none;"
points="4090,6430
9590,6430
" /> 
<polyline fill="none;"
points="9590,31930
9590,2930
" /> 
<polyline fill="none;"
points="13590,31930
13590,2930
" /> 
<polyline fill="none;"
points="13590,28430
19090,28430
" /> 
<polyline fill="none;"
points="13590,24930
19090,24930
" /> 
<polyline fill="none;"
points="13590,21430
19090,21430
" /> 
<polyline fill="none;"
points="13590,17930
19090,17930
" /> 
<polyline fill="none;"
points="13590,11430
19090,11430
" /> 
<polyline fill="none;"
points="13590,4930
19090,4930
" /> 
<path d="M4090 4930
L2090 4930
" />
<path d="M4540 4660
L4700 5160
L4870 4660
" />
<path d="M5320 5110
L5300 5130
L5230 5160
L5180 5160
L5110 5130
L5060 5080
L5040 5040
L5020 4940
L5020 4870
L5040 4780
L5060 4730
L5110 4680
L5180 4660
L5230 4660
L5300 4680
L5320 4700
" />
<path d="M5820 5110
L5800 5130
L5730 5160
L5680 5160
L5610 5130
L5560 5080
L5540 5040
L5520 4940
L5520 4870
L5540 4780
L5560 4730
L5610 4680
L5680 4660
L5730 4660
L5800 4680
L5820 4700
" />
<path d="M3230 4810
L2950 4810
" />
<path d="M3090 4810
L3090 4310
L3040 4380
L2990 4430
L2950 4450
" />
<path d="M19090 29430
L21090 29430
" />
<path d="M15830 29660
L15830 29160
L16020 29160
L16070 29180
L16090 29200
L16110 29250
L16110 29320
L16090 29370
L16070 29390
L16020 29420
L15830 29420
" />
<path d="M16310 29200
L16330 29180
L16380 29160
L16500 29160
L16540 29180
L16570 29200
L16590 29250
L16590 29300
L16570 29370
L16280 29660
L16590 29660
" />
<path d="M16790 29200
L16810 29180
L16860 29160
L16980 29160
L17020 29180
L17050 29200
L17070 29250
L17070 29300
L17050 29370
L16760 29660
L17070 29660
" />
<path d="M17650 29130
L17220 29780
" />
<path d="M17810 29660
L17810 29160
L17930 29160
L18000 29180
L18050 29230
L18070 29280
L18090 29370
L18090 29440
L18070 29540
L18050 29580
L18000 29630
L17930 29660
L17810 29660
" />
<path d="M18590 29610
L18570 29630
L18500 29660
L18450 29660
L18380 29630
L18330 29580
L18310 29540
L18290 29440
L18290 29370
L18310 29280
L18330 29230
L18380 29180
L18450 29160
L18500 29160
L18570 29180
L18590 29200
" />
<path d="M19950 28850
L19970 28830
L20020 28810
L20140 28810
L20180 28830
L20210 28850
L20230 28900
L20230 28950
L20210 29020
L19920 29310
L20230 29310
" />
<path d="M19090 30930
L21090 30930
" />
<path d="M15830 31160
L15830 30660
L16020 30660
L16070 30680
L16090 30700
L16110 30750
L16110 30820
L16090 30870
L16070 30890
L16020 30920
L15830 30920
" />
<path d="M16310 30700
L16330 30680
L16380 30660
L16500 30660
L16540 30680
L16570 30700
L16590 30750
L16590 30800
L16570 30870
L16280 31160
L16590 31160
" />
<path d="M17070 31160
L16790 31160
" />
<path d="M16930 31160
L16930 30660
L16880 30730
L16830 30780
L16790 30800
" />
<path d="M17650 30630
L17220 31280
" />
<path d="M17810 31160
L17810 30660
L17930 30660
L18000 30680
L18050 30730
L18070 30780
L18090 30870
L18090 30940
L18070 31040
L18050 31080
L18000 31130
L17930 31160
L17810 31160
" />
<path d="M18310 31160
L18310 30660
L18430 30660
L18500 30680
L18550 30730
L18570 30780
L18590 30870
L18590 30940
L18570 31040
L18550 31080
L18500 31130
L18430 31160
L18310 31160
" />
<path d="M19920 30310
L20230 30310
L20060 30500
L20140 30500
L20180 30520
L20210 30540
L20230 30590
L20230 30710
L20210 30760
L20180 30780
L20140 30810
L19990 30810
L19950 30780
L19920 30760
" />
<path d="M19090 3930
L21090 3930
" />
<path d="M15480 4160
L15480 3660
L15670 3660
L15720 3680
L15740 3700
L15760 3750
L15760 3820
L15740 3870
L15720 3890
L15670 3920
L15480 3920
" />
<path d="M16240 4160
L15960 4160
" />
<path d="M16100 4160
L16100 3660
L16050 3730
L16000 3780
L15960 3800
" />
<path d="M16670 3660
L16580 3660
L16530 3680
L16510 3700
L16460 3780
L16440 3870
L16440 4060
L16460 4110
L16480 4130
L16530 4160
L16630 4160
L16670 4130
L16700 4110
L16720 4060
L16720 3940
L16700 3890
L16670 3870
L16630 3850
L16530 3850
L16480 3870
L16460 3890
L16440 3940
" />
<path d="M17300 3630
L16870 4280
" />
<path d="M17700 4160
L17460 4160
L17460 3660
" />
<path d="M17860 3890
L18030 3890
" />
<path d="M18100 4160
L17860 4160
L17860 3660
L18100 3660
" />
<path d="M18310 4160
L18310 3660
L18430 3660
L18500 3680
L18550 3730
L18570 3780
L18590 3870
L18590 3940
L18570 4040
L18550 4080
L18500 4130
L18430 4160
L18310 4160
" />
<path d="M20180 3310
L20090 3310
L20040 3330
L20020 3350
L19970 3430
L19950 3520
L19950 3710
L19970 3760
L19990 3780
L20040 3810
L20140 3810
L20180 3780
L20210 3760
L20230 3710
L20230 3590
L20210 3540
L20180 3520
L20140 3500
L20040 3500
L19990 3520
L19970 3540
L19950 3590
" />
<path d="M19090 13930
L21090 13930
" />
<path d="M14710 14160
L14710 13660
L14900 13660
L14950 13680
L14970 13700
L14990 13750
L14990 13820
L14970 13870
L14950 13890
L14900 13920
L14710 13920
" />
<path d="M15470 14160
L15190 14160
" />
<path d="M15330 14160
L15330 13660
L15280 13730
L15230 13780
L15190 13800
" />
<path d="M15950 14160
L15670 14160
" />
<path d="M15810 14160
L15810 13660
L15760 13730
L15710 13780
L15670 13800
" />
<path d="M16530 13630
L16100 14280
" />
<path d="M16690 14160
L16690 13660
L16880 13660
L16930 13680
L16950 13700
L16970 13750
L16970 13820
L16950 13870
L16930 13890
L16880 13920
L16690 13920
" />
<path d="M17140 13660
L17260 14160
L17360 13800
L17450 14160
L17570 13660
" />
<path d="M17760 14160
L17760 13660
L17930 14010
L18090 13660
L18090 14160
" />
<path d="M18310 13700
L18330 13680
L18380 13660
L18500 13660
L18540 13680
L18570 13700
L18590 13750
L18590 13800
L18570 13870
L18280 14160
L18590 14160
" />
<path d="M19920 13310
L20250 13310
L20040 13810
" />
<path d="M19090 5930
L21090 5930
" />
<path d="M15590 6160
L15590 5660
L15780 5660
L15830 5680
L15850 5700
L15870 5750
L15870 5820
L15850 5870
L15830 5890
L15780 5920
L15590 5920
" />
<path d="M16350 6160
L16070 6160
" />
<path d="M16210 6160
L16210 5660
L16160 5730
L16110 5780
L16070 5800
" />
<path d="M16550 5700
L16570 5680
L16620 5660
L16740 5660
L16780 5680
L16810 5700
L16830 5750
L16830 5800
L16810 5870
L16520 6160
L16830 6160
" />
<path d="M17410 5630
L16980 6280
" />
<path d="M17570 6160
L17570 5660
" />
<path d="M17900 5660
L18000 5660
L18050 5680
L18090 5730
L18120 5820
L18120 5990
L18090 6080
L18050 6130
L18000 6160
L17900 6160
L17860 6130
L17810 6080
L17790 5990
L17790 5820
L17810 5730
L17860 5680
L17900 5660
" />
<path d="M18590 6160
L18310 6160
" />
<path d="M18450 6160
L18450 5660
L18400 5730
L18350 5780
L18310 5800
" />
<path d="M20040 5520
L19990 5500
L19970 5470
L19950 5430
L19950 5400
L19970 5350
L19990 5330
L20040 5310
L20140 5310
L20180 5330
L20210 5350
L20230 5400
L20230 5430
L20210 5470
L20180 5500
L20140 5520
L20040 5520
L19990 5540
L19970 5570
L19950 5620
L19950 5710
L19970 5760
L19990 5780
L20040 5810
L20140 5810
L20180 5780
L20210 5760
L20230 5710
L20230 5620
L20210 5570
L20180 5540
L20140 5520
" />
<path d="M19090 7430
L21090 7430
" />
<path d="M15590 7660
L15590 7160
L15780 7160
L15830 7180
L15850 7200
L15870 7250
L15870 7320
L15850 7370
L15830 7390
L15780 7420
L15590 7420
" />
<path d="M16350 7660
L16070 7660
" />
<path d="M16210 7660
L16210 7160
L16160 7230
L16110 7280
L16070 7300
" />
<path d="M16520 7160
L16830 7160
L16660 7350
L16740 7350
L16780 7370
L16810 7390
L16830 7440
L16830 7560
L16810 7610
L16780 7630
L16740 7660
L16590 7660
L16550 7630
L16520 7610
" />
<path d="M17410 7130
L16980 7780
" />
<path d="M17570 7660
L17570 7160
" />
<path d="M17900 7160
L18000 7160
L18050 7180
L18090 7230
L18120 7320
L18120 7490
L18090 7580
L18050 7630
L18000 7660
L17900 7660
L17860 7630
L17810 7580
L17790 7490
L17790 7320
L17810 7230
L17860 7180
L17900 7160
" />
<path d="M18310 7200
L18330 7180
L18380 7160
L18500 7160
L18540 7180
L18570 7200
L18590 7250
L18590 7300
L18570 7370
L18280 7660
L18590 7660
" />
<path d="M19990 7310
L20090 7310
L20140 7280
L20160 7260
L20210 7190
L20230 7090
L20230 6900
L20210 6850
L20180 6830
L20140 6810
L20040 6810
L19990 6830
L19970 6850
L19950 6900
L19950 7020
L19970 7070
L19990 7090
L20040 7120
L20140 7120
L20180 7090
L20210 7070
L20230 7020
" />
<path d="M19090 8930
L21090 8930
" />
<path d="M15590 9160
L15590 8660
L15780 8660
L15830 8680
L15850 8700
L15870 8750
L15870 8820
L15850 8870
L15830 8890
L15780 8920
L15590 8920
" />
<path d="M16350 9160
L16070 9160
" />
<path d="M16210 9160
L16210 8660
L16160 8730
L16110 8780
L16070 8800
" />
<path d="M16810 8660
L16570 8660
L16550 8890
L16570 8870
L16620 8850
L16740 8850
L16780 8870
L16810 8890
L16830 8940
L16830 9060
L16810 9110
L16780 9130
L16740 9160
L16620 9160
L16570 9130
L16550 9110
" />
<path d="M17410 8630
L16980 9280
" />
<path d="M17570 9160
L17570 8660
" />
<path d="M17900 8660
L18000 8660
L18050 8680
L18090 8730
L18120 8820
L18120 8990
L18090 9080
L18050 9130
L18000 9160
L17900 9160
L17860 9130
L17810 9080
L17790 8990
L17790 8820
L17810 8730
L17860 8680
L17900 8660
" />
<path d="M18280 8660
L18590 8660
L18420 8850
L18500 8850
L18540 8870
L18570 8890
L18590 8940
L18590 9060
L18570 9110
L18540 9130
L18500 9160
L18350 9160
L18310 9130
L18280 9110
" />
<path d="M19990 8810
L19710 8810
" />
<path d="M19850 8810
L19850 8310
L19800 8380
L19750 8430
L19710 8450
" />
<path d="M20300 8310
L20350 8310
L20400 8330
L20420 8350
L20450 8400
L20470 8500
L20470 8620
L20450 8710
L20420 8760
L20400 8780
L20350 8810
L20300 8810
L20260 8780
L20230 8760
L20210 8710
L20190 8620
L20190 8500
L20210 8400
L20230 8350
L20260 8330
L20300 8310
" />
<path d="M19090 23930
L21090 23930
" />
<path d="M15350 24160
L15350 23660
L15540 23660
L15590 23680
L15610 23700
L15630 23750
L15630 23820
L15610 23870
L15590 23890
L15540 23920
L15350 23920
" />
<path d="M15940 23660
L15990 23660
L16040 23680
L16060 23700
L16090 23750
L16110 23850
L16110 23970
L16090 24060
L16060 24110
L16040 24130
L15990 24160
L15940 24160
L15900 24130
L15870 24110
L15850 24060
L15830 23970
L15830 23850
L15850 23750
L15870 23700
L15900 23680
L15940 23660
" />
<path d="M16310 23700
L16330 23680
L16380 23660
L16500 23660
L16540 23680
L16570 23700
L16590 23750
L16590 23800
L16570 23870
L16280 24160
L16590 24160
" />
<path d="M17170 23630
L16740 24280
" />
<path d="M17610 24160
L17450 23920
" />
<path d="M17330 24160
L17330 23660
L17520 23660
L17570 23680
L17590 23700
L17610 23750
L17610 23820
L17590 23870
L17570 23890
L17520 23920
L17330 23920
" />
<path d="M17780 23660
L18110 24160
" />
<path d="M18110 23660
L17780 24160
" />
<path d="M18310 24160
L18310 23660
L18430 23660
L18500 23680
L18550 23730
L18570 23780
L18590 23870
L18590 23940
L18570 24040
L18550 24080
L18500 24130
L18430 24160
L18310 24160
" />
<path d="M19710 23350
L19730 23330
L19780 23310
L19900 23310
L19940 23330
L19970 23350
L19990 23400
L19990 23450
L19970 23520
L19680 23810
L19990 23810
" />
<path d="M20300 23310
L20350 23310
L20400 23330
L20420 23350
L20450 23400
L20470 23500
L20470 23620
L20450 23710
L20420 23760
L20400 23780
L20350 23810
L20300 23810
L20260 23780
L20230 23760
L20210 23710
L20190 23620
L20190 23500
L20210 23400
L20230 23350
L20260 23330
L20300 23310
" />
<path d="M19090 25930
L21090 25930
" />
<path d="M17310 26130
L17380 26160
L17500 26160
L17540 26130
L17570 26110
L17590 26060
L17590 26010
L17570 25970
L17540 25940
L17500 25920
L17400 25890
L17350 25870
L17330 25850
L17310 25800
L17310 25750
L17330 25700
L17350 25680
L17400 25660
L17520 25660
L17590 25680
" />
<path d="M18090 26110
L18070 26130
L18000 26160
L17950 26160
L17880 26130
L17830 26080
L17810 26040
L17790 25940
L17790 25870
L17810 25780
L17830 25730
L17880 25680
L17950 25660
L18000 25660
L18070 25680
L18090 25700
" />
<path d="M18310 26160
L18310 25660
" />
<path d="M18590 26160
L18380 25870
" />
<path d="M18590 25660
L18310 25940
" />
<path d="M19990 25810
L19710 25810
" />
<path d="M19850 25810
L19850 25310
L19800 25380
L19750 25430
L19710 25450
" />
<path d="M20470 25810
L20190 25810
" />
<path d="M20330 25810
L20330 25310
L20280 25380
L20230 25430
L20190 25450
" />
<path d="M4090 13430
L2090 13430
" />
<path d="M4610 13660
L4610 13160
L4800 13160
L4850 13180
L4870 13200
L4890 13250
L4890 13320
L4870 13370
L4850 13390
L4800 13420
L4610 13420
" />
<path d="M5200 13160
L5250 13160
L5300 13180
L5320 13200
L5350 13250
L5370 13350
L5370 13470
L5350 13560
L5320 13610
L5300 13630
L5250 13660
L5200 13660
L5160 13630
L5130 13610
L5110 13560
L5090 13470
L5090 13350
L5110 13250
L5130 13200
L5160 13180
L5200 13160
" />
<path d="M5850 13660
L5570 13660
" />
<path d="M5710 13660
L5710 13160
L5660 13230
L5610 13280
L5570 13300
" />
<path d="M6430 13130
L6000 13780
" />
<path d="M6590 13660
L6590 13160
" />
<path d="M6920 13160
L7020 13160
L7070 13180
L7110 13230
L7140 13320
L7140 13490
L7110 13580
L7070 13630
L7020 13660
L6920 13660
L6880 13630
L6830 13580
L6810 13490
L6810 13320
L6830 13230
L6880 13180
L6920 13160
" />
<path d="M7230 13700
L7610 13700
" />
<path d="M7820 13160
L7920 13160
L7970 13180
L8010 13230
L8040 13320
L8040 13490
L8010 13580
L7970 13630
L7920 13660
L7820 13660
L7780 13630
L7730 13580
L7710 13490
L7710 13320
L7730 13230
L7780 13180
L7820 13160
" />
<path d="M8420 13390
L8250 13390
" />
<path d="M8250 13660
L8250 13160
L8490 13160
" />
<path d="M8850 13390
L8680 13390
" />
<path d="M8680 13660
L8680 13160
L8920 13160
" />
<path d="M2710 12850
L2730 12830
L2780 12810
L2900 12810
L2940 12830
L2970 12850
L2990 12900
L2990 12950
L2970 13020
L2680 13310
L2990 13310
" />
<path d="M3470 13310
L3190 13310
" />
<path d="M3330 13310
L3330 12810
L3280 12880
L3230 12930
L3190 12950
" />
<path d="M19090 27430
L21090 27430
" />
<path d="M17380 27630
L17450 27660
L17570 27660
L17610 27630
L17640 27610
L17660 27560
L17660 27510
L17640 27470
L17610 27440
L17570 27420
L17470 27390
L17420 27370
L17400 27350
L17380 27300
L17380 27250
L17400 27200
L17420 27180
L17470 27160
L17590 27160
L17660 27180
" />
<path d="M17880 27660
L17880 27160
L18000 27160
L18070 27180
L18120 27230
L18140 27280
L18160 27370
L18160 27440
L18140 27540
L18120 27580
L18070 27630
L18000 27660
L17880 27660
" />
<path d="M18360 27510
L18590 27510
" />
<path d="M18310 27660
L18470 27160
L18640 27660
" />
<path d="M19990 27310
L19710 27310
" />
<path d="M19850 27310
L19850 26810
L19800 26880
L19750 26930
L19710 26950
" />
<path d="M20190 26850
L20210 26830
L20260 26810
L20380 26810
L20420 26830
L20450 26850
L20470 26900
L20470 26950
L20450 27020
L20160 27310
L20470 27310
" />
<path d="M4090 9930
L2090 9930
" />
<path d="M4610 10160
L4610 9660
L4800 9660
L4850 9680
L4870 9700
L4890 9750
L4890 9820
L4870 9870
L4850 9890
L4800 9920
L4610 9920
" />
<path d="M5200 9660
L5250 9660
L5300 9680
L5320 9700
L5350 9750
L5370 9850
L5370 9970
L5350 10060
L5320 10110
L5300 10130
L5250 10160
L5200 10160
L5160 10130
L5130 10110
L5110 10060
L5090 9970
L5090 9850
L5110 9750
L5130 9700
L5160 9680
L5200 9660
" />
<path d="M5680 9660
L5730 9660
L5780 9680
L5800 9700
L5830 9750
L5850 9850
L5850 9970
L5830 10060
L5800 10110
L5780 10130
L5730 10160
L5680 10160
L5640 10130
L5610 10110
L5590 10060
L5570 9970
L5570 9850
L5590 9750
L5610 9700
L5640 9680
L5680 9660
" />
<path d="M6430 9630
L6000 10280
" />
<path d="M6590 10160
L6590 9660
L6780 9660
L6830 9680
L6850 9700
L6870 9750
L6870 9820
L6850 9870
L6830 9890
L6780 9920
L6590 9920
" />
<path d="M7040 9660
L7160 10160
L7260 9800
L7350 10160
L7470 9660
" />
<path d="M7940 10160
L7780 9920
" />
<path d="M7660 10160
L7660 9660
L7850 9660
L7900 9680
L7920 9700
L7940 9750
L7940 9820
L7920 9870
L7900 9890
L7850 9920
L7660 9920
" />
<path d="M8440 10110
L8420 10130
L8350 10160
L8300 10160
L8230 10130
L8180 10080
L8160 10040
L8140 9940
L8140 9870
L8160 9780
L8180 9730
L8230 9680
L8300 9660
L8350 9660
L8420 9680
L8440 9700
" />
<path d="M2710 9350
L2730 9330
L2780 9310
L2900 9310
L2940 9330
L2970 9350
L2990 9400
L2990 9450
L2970 9520
L2680 9810
L2990 9810
" />
<path d="M3190 9350
L3210 9330
L3260 9310
L3380 9310
L3420 9330
L3450 9350
L3470 9400
L3470 9450
L3450 9520
L3160 9810
L3470 9810
" />
<path d="M19090 10430
L21090 10430
" />
<path d="M15590 10660
L15590 10160
L15780 10160
L15830 10180
L15850 10200
L15870 10250
L15870 10320
L15850 10370
L15830 10390
L15780 10420
L15590 10420
" />
<path d="M16350 10660
L16070 10660
" />
<path d="M16210 10660
L16210 10160
L16160 10230
L16110 10280
L16070 10300
" />
<path d="M16780 10320
L16780 10660
" />
<path d="M16660 10130
L16550 10490
L16850 10490
" />
<path d="M17410 10130
L16980 10780
" />
<path d="M17570 10660
L17570 10160
" />
<path d="M17900 10160
L18000 10160
L18050 10180
L18090 10230
L18120 10320
L18120 10490
L18090 10580
L18050 10630
L18000 10660
L17900 10660
L17860 10630
L17810 10580
L17790 10490
L17790 10320
L17810 10230
L17860 10180
L17900 10160
" />
<path d="M18540 10320
L18540 10660
" />
<path d="M18420 10130
L18310 10490
L18610 10490
" />
<path d="M19990 10310
L19710 10310
" />
<path d="M19850 10310
L19850 9810
L19800 9880
L19750 9930
L19710 9950
" />
<path d="M20160 9810
L20470 9810
L20300 10000
L20380 10000
L20420 10020
L20450 10040
L20470 10090
L20470 10210
L20450 10260
L20420 10280
L20380 10310
L20230 10310
L20190 10280
L20160 10260
" />
<path d="M4090 8430
L2090 8430
" />
<path d="M4890 8660
L4730 8420
" />
<path d="M4610 8660
L4610 8160
L4800 8160
L4850 8180
L4870 8200
L4890 8250
L4890 8320
L4870 8370
L4850 8390
L4800 8420
L4610 8420
" />
<path d="M5110 8390
L5280 8390
" />
<path d="M5350 8660
L5110 8660
L5110 8160
L5350 8160
" />
<path d="M5540 8630
L5610 8660
L5730 8660
L5770 8630
L5800 8610
L5820 8560
L5820 8510
L5800 8470
L5770 8440
L5730 8420
L5630 8390
L5580 8370
L5560 8350
L5540 8300
L5540 8250
L5560 8200
L5580 8180
L5630 8160
L5750 8160
L5820 8180
" />
<path d="M4490 8070
L5920 8070
" />
<path d="M2710 7850
L2730 7830
L2780 7810
L2900 7810
L2940 7830
L2970 7850
L2990 7900
L2990 7950
L2970 8020
L2680 8310
L2990 8310
" />
<path d="M3160 7810
L3470 7810
L3300 8000
L3380 8000
L3420 8020
L3450 8040
L3470 8090
L3470 8210
L3450 8260
L3420 8280
L3380 8310
L3230 8310
L3190 8280
L3160 8260
" />
<path d="M19090 12430
L21090 12430
" />
<path d="M14710 12660
L14710 12160
L14900 12160
L14950 12180
L14970 12200
L14990 12250
L14990 12320
L14970 12370
L14950 12390
L14900 12420
L14710 12420
" />
<path d="M15470 12660
L15190 12660
" />
<path d="M15330 12660
L15330 12160
L15280 12230
L15230 12280
L15190 12300
" />
<path d="M15780 12160
L15830 12160
L15880 12180
L15900 12200
L15930 12250
L15950 12350
L15950 12470
L15930 12560
L15900 12610
L15880 12630
L15830 12660
L15780 12660
L15740 12630
L15710 12610
L15690 12560
L15670 12470
L15670 12350
L15690 12250
L15710 12200
L15740 12180
L15780 12160
" />
<path d="M16530 12130
L16100 12780
" />
<path d="M16690 12660
L16690 12160
L16880 12160
L16930 12180
L16950 12200
L16970 12250
L16970 12320
L16950 12370
L16930 12390
L16880 12420
L16690 12420
" />
<path d="M17140 12160
L17260 12660
L17360 12300
L17450 12660
L17570 12160
" />
<path d="M17760 12660
L17760 12160
L17930 12510
L18090 12160
L18090 12660
" />
<path d="M18590 12660
L18310 12660
" />
<path d="M18450 12660
L18450 12160
L18400 12230
L18350 12280
L18310 12300
" />
<path d="M19990 12310
L19710 12310
" />
<path d="M19850 12310
L19850 11810
L19800 11880
L19750 11930
L19710 11950
" />
<path d="M20420 11970
L20420 12310
" />
<path d="M20300 11780
L20190 12140
L20490 12140
" />
<path d="M4090 30430
L2090 30430
" />
<path d="M4870 30180
L4820 30160
L4750 30160
L4680 30180
L4630 30230
L4610 30280
L4590 30370
L4590 30440
L4610 30540
L4630 30580
L4680 30630
L4750 30660
L4800 30660
L4870 30630
L4890 30610
L4890 30440
L4800 30440
" />
<path d="M5110 30660
L5110 30160
L5390 30660
L5390 30160
" />
<path d="M5630 30660
L5630 30160
L5750 30160
L5820 30180
L5870 30230
L5890 30280
L5910 30370
L5910 30440
L5890 30540
L5870 30580
L5820 30630
L5750 30660
L5630 30660
" />
<path d="M2710 29850
L2730 29830
L2780 29810
L2900 29810
L2940 29830
L2970 29850
L2990 29900
L2990 29950
L2970 30020
L2680 30310
L2990 30310
" />
<path d="M3420 29970
L3420 30310
" />
<path d="M3300 29780
L3190 30140
L3490 30140
" />
<path d="M19090 15430
L21090 15430
" />
<path d="M14710 15660
L14710 15160
L14900 15160
L14950 15180
L14970 15200
L14990 15250
L14990 15320
L14970 15370
L14950 15390
L14900 15420
L14710 15420
" />
<path d="M15300 15160
L15350 15160
L15400 15180
L15420 15200
L15450 15250
L15470 15350
L15470 15470
L15450 15560
L15420 15610
L15400 15630
L15350 15660
L15300 15660
L15260 15630
L15230 15610
L15210 15560
L15190 15470
L15190 15350
L15210 15250
L15230 15200
L15260 15180
L15300 15160
" />
<path d="M15640 15160
L15970 15160
L15760 15660
" />
<path d="M16530 15130
L16100 15780
" />
<path d="M16690 15660
L16690 15160
L16880 15160
L16930 15180
L16950 15200
L16970 15250
L16970 15320
L16950 15370
L16930 15390
L16880 15420
L16690 15420
" />
<path d="M17140 15160
L17260 15660
L17360 15300
L17450 15660
L17570 15160
" />
<path d="M17760 15660
L17760 15160
L17930 15510
L18090 15160
L18090 15660
" />
<path d="M18280 15160
L18590 15160
L18420 15350
L18500 15350
L18540 15370
L18570 15390
L18590 15440
L18590 15560
L18570 15610
L18540 15630
L18500 15660
L18350 15660
L18310 15630
L18280 15610
" />
<path d="M19990 15310
L19710 15310
" />
<path d="M19850 15310
L19850 14810
L19800 14880
L19750 14930
L19710 14950
" />
<path d="M20450 14810
L20210 14810
L20190 15040
L20210 15020
L20260 15000
L20380 15000
L20420 15020
L20450 15040
L20470 15090
L20470 15210
L20450 15260
L20420 15280
L20380 15310
L20260 15310
L20210 15280
L20190 15260
" />
<path d="M19090 16930
L21090 16930
" />
<path d="M14710 17160
L14710 16660
L14900 16660
L14950 16680
L14970 16700
L14990 16750
L14990 16820
L14970 16870
L14950 16890
L14900 16920
L14710 16920
" />
<path d="M15300 16660
L15350 16660
L15400 16680
L15420 16700
L15450 16750
L15470 16850
L15470 16970
L15450 17060
L15420 17110
L15400 17130
L15350 17160
L15300 17160
L15260 17130
L15230 17110
L15210 17060
L15190 16970
L15190 16850
L15210 16750
L15230 16700
L15260 16680
L15300 16660
" />
<path d="M15900 16660
L15810 16660
L15760 16680
L15740 16700
L15690 16780
L15670 16870
L15670 17060
L15690 17110
L15710 17130
L15760 17160
L15860 17160
L15900 17130
L15930 17110
L15950 17060
L15950 16940
L15930 16890
L15900 16870
L15860 16850
L15760 16850
L15710 16870
L15690 16890
L15670 16940
" />
<path d="M16530 16630
L16100 17280
" />
<path d="M16690 17160
L16690 16660
L16880 16660
L16930 16680
L16950 16700
L16970 16750
L16970 16820
L16950 16870
L16930 16890
L16880 16920
L16690 16920
" />
<path d="M17140 16660
L17260 17160
L17360 16800
L17450 17160
L17570 16660
" />
<path d="M17760 17160
L17760 16660
L17930 17010
L18090 16660
L18090 17160
" />
<path d="M18540 16820
L18540 17160
" />
<path d="M18420 16630
L18310 16990
L18610 16990
" />
<path d="M19990 16810
L19710 16810
" />
<path d="M19850 16810
L19850 16310
L19800 16380
L19750 16430
L19710 16450
" />
<path d="M20420 16310
L20330 16310
L20280 16330
L20260 16350
L20210 16430
L20190 16520
L20190 16710
L20210 16760
L20230 16780
L20280 16810
L20380 16810
L20420 16780
L20450 16760
L20470 16710
L20470 16590
L20450 16540
L20420 16520
L20380 16500
L20280 16500
L20230 16520
L20210 16540
L20190 16590
" />
<path d="M19090 18930
L21090 18930
" />
<path d="M15450 19160
L15450 18660
L15640 18660
L15690 18680
L15710 18700
L15730 18750
L15730 18820
L15710 18870
L15690 18890
L15640 18920
L15450 18920
" />
<path d="M16040 18660
L16090 18660
L16140 18680
L16160 18700
L16190 18750
L16210 18850
L16210 18970
L16190 19060
L16160 19110
L16140 19130
L16090 19160
L16040 19160
L16000 19130
L15970 19110
L15950 19060
L15930 18970
L15930 18850
L15950 18750
L15970 18700
L16000 18680
L16040 18660
" />
<path d="M16670 18660
L16430 18660
L16410 18890
L16430 18870
L16480 18850
L16600 18850
L16640 18870
L16670 18890
L16690 18940
L16690 19060
L16670 19110
L16640 19130
L16600 19160
L16480 19160
L16430 19130
L16410 19110
" />
<path d="M17270 18630
L16840 19280
" />
<path d="M17710 19160
L17550 18920
" />
<path d="M17430 19160
L17430 18660
L17620 18660
L17670 18680
L17690 18700
L17710 18750
L17710 18820
L17690 18870
L17670 18890
L17620 18920
L17430 18920
" />
<path d="M17860 18660
L18140 18660
" />
<path d="M18000 19160
L18000 18660
" />
<path d="M18590 19110
L18570 19130
L18500 19160
L18450 19160
L18380 19130
L18330 19080
L18310 19040
L18290 18940
L18290 18870
L18310 18780
L18330 18730
L18380 18680
L18450 18660
L18500 18660
L18570 18680
L18590 18700
" />
<path d="M19990 18810
L19710 18810
" />
<path d="M19850 18810
L19850 18310
L19800 18380
L19750 18430
L19710 18450
" />
<path d="M20160 18310
L20490 18310
L20280 18810
" />
<path d="M19090 20430
L21090 20430
" />
<path d="M15450 20660
L15450 20160
L15640 20160
L15690 20180
L15710 20200
L15730 20250
L15730 20320
L15710 20370
L15690 20390
L15640 20420
L15450 20420
" />
<path d="M16040 20160
L16090 20160
L16140 20180
L16160 20200
L16190 20250
L16210 20350
L16210 20470
L16190 20560
L16160 20610
L16140 20630
L16090 20660
L16040 20660
L16000 20630
L15970 20610
L15950 20560
L15930 20470
L15930 20350
L15950 20250
L15970 20200
L16000 20180
L16040 20160
" />
<path d="M16640 20320
L16640 20660
" />
<path d="M16520 20130
L16410 20490
L16710 20490
" />
<path d="M17270 20130
L16840 20780
" />
<path d="M17710 20660
L17550 20420
" />
<path d="M17430 20660
L17430 20160
L17620 20160
L17670 20180
L17690 20200
L17710 20250
L17710 20320
L17690 20370
L17670 20390
L17620 20420
L17430 20420
" />
<path d="M17860 20160
L18140 20160
" />
<path d="M18000 20660
L18000 20160
" />
<path d="M18590 20610
L18570 20630
L18500 20660
L18450 20660
L18380 20630
L18330 20580
L18310 20540
L18290 20440
L18290 20370
L18310 20280
L18330 20230
L18380 20180
L18450 20160
L18500 20160
L18570 20180
L18590 20200
" />
<path d="M19990 20310
L19710 20310
" />
<path d="M19850 20310
L19850 19810
L19800 19880
L19750 19930
L19710 19950
" />
<path d="M20280 20020
L20230 20000
L20210 19970
L20190 19930
L20190 19900
L20210 19850
L20230 19830
L20280 19810
L20380 19810
L20420 19830
L20450 19850
L20470 19900
L20470 19930
L20450 19970
L20420 20000
L20380 20020
L20280 20020
L20230 20040
L20210 20070
L20190 20120
L20190 20210
L20210 20260
L20230 20280
L20280 20310
L20380 20310
L20420 20280
L20450 20260
L20470 20210
L20470 20120
L20450 20070
L20420 20040
L20380 20020
" />
<path d="M19090 22430
L21090 22430
" />
<path d="M15470 22660
L15470 22160
L15660 22160
L15710 22180
L15730 22200
L15750 22250
L15750 22320
L15730 22370
L15710 22390
L15660 22420
L15470 22420
" />
<path d="M16060 22160
L16110 22160
L16160 22180
L16180 22200
L16210 22250
L16230 22350
L16230 22470
L16210 22560
L16180 22610
L16160 22630
L16110 22660
L16060 22660
L16020 22630
L15990 22610
L15970 22560
L15950 22470
L15950 22350
L15970 22250
L15990 22200
L16020 22180
L16060 22160
" />
<path d="M16400 22160
L16710 22160
L16540 22350
L16620 22350
L16660 22370
L16690 22390
L16710 22440
L16710 22560
L16690 22610
L16660 22630
L16620 22660
L16470 22660
L16430 22630
L16400 22610
" />
<path d="M17290 22130
L16860 22780
" />
<path d="M17380 22160
L17660 22160
" />
<path d="M17520 22660
L17520 22160
" />
<path d="M17780 22160
L18110 22660
" />
<path d="M18110 22160
L17780 22660
" />
<path d="M18310 22660
L18310 22160
L18430 22160
L18500 22180
L18550 22230
L18570 22280
L18590 22370
L18590 22440
L18570 22540
L18550 22580
L18500 22630
L18430 22660
L18310 22660
" />
<path d="M19990 22310
L19710 22310
" />
<path d="M19850 22310
L19850 21810
L19800 21880
L19750 21930
L19710 21950
" />
<path d="M20230 22310
L20330 22310
L20380 22280
L20400 22260
L20450 22190
L20470 22090
L20470 21900
L20450 21850
L20420 21830
L20380 21810
L20280 21810
L20230 21830
L20210 21850
L20190 21900
L20190 22020
L20210 22070
L20230 22090
L20280 22120
L20380 22120
L20420 22090
L20450 22070
L20470 22020
" />
<path d="M11160 4130
L11160 4620
L11190 4670
L11220 4700
L11280 4730
L11390 4730
L11450 4700
L11480 4670
L11510 4620
L11510 4130
" />
<path d="M11880 4670
L11910 4700
L11880 4730
L11850 4700
L11880 4670
L11880 4730
" />
<path d="M11760 4160
L11820 4130
L11960 4130
L12020 4160
L12050 4220
L12050 4270
L12020 4330
L11990 4360
L11940 4390
L11910 4420
L11880 4470
L11880 4500
" />
<path d="M10180 30130
L10180 30560
L10160 30650
L10100 30700
L10010 30730
L9960 30730
" />
<path d="M10470 30730
L10470 30130
L10620 30130
L10700 30160
L10760 30220
L10790 30270
L10820 30390
L10820 30470
L10790 30590
L10760 30650
L10700 30700
L10620 30730
L10470 30730
" />
<path d="M11190 30450
L11190 30730
" />
<path d="M10990 30130
L11190 30450
L11390 30130
" />
<path d="M11580 30500
L12040 30500
" />
<path d="M12440 30130
L12490 30130
L12550 30160
L12580 30190
L12610 30250
L12640 30360
L12640 30500
L12610 30620
L12580 30670
L12550 30700
L12490 30730
L12440 30730
L12380 30700
L12350 30670
L12320 30620
L12290 30500
L12290 30360
L12320 30250
L12350 30190
L12380 30160
L12440 30130
" />
<path d="M12980 30390
L12920 30360
L12890 30330
L12860 30270
L12860 30250
L12890 30190
L12920 30160
L12980 30130
L13090 30130
L13150 30160
L13180 30190
L13210 30250
L13210 30270
L13180 30330
L13150 30360
L13090 30390
L12980 30390
L12920 30420
L12890 30450
L12860 30500
L12860 30620
L12890 30670
L12920 30700
L12980 30730
L13090 30730
L13150 30700
L13180 30670
L13210 30620
L13210 30500
L13180 30450
L13150 30420
L13090 30390
" />
</g> 
</svg>
